<?xml version="1.0" encoding="utf-8"?>
<!-- Generator: Adobe Illustrator 15.0.0, SVG Export Plug-In . SVG Version: 6.00 Build 0)  -->
<!DOCTYPE svg PUBLIC "-//W3C//DTD SVG 1.1//EN" "http://www.w3.org/Graphics/SVG/1.1/DTD/svg11.dtd">
<svg version="1.1" id="Layer_1" xmlns="http://www.w3.org/2000/svg" xmlns:xlink="http://www.w3.org/1999/xlink" x="0px" y="0px"
	 width="30px" height="30px" viewBox="0 0 30 30" enable-background="new 0 0 30 30" xml:space="preserve">
<g>
	<path fill="#777777" d="M29.912,10.385c-0.104-0.162-0.281-0.261-0.475-0.261h-3.666l-0.777,1.127h3.557l-2.646,5.642H15.695
		l0.725-0.653c0.23-0.21,0.248-0.564,0.041-0.798c-0.211-0.229-0.566-0.248-0.797-0.039l-3.195,2.886l-1.255,1.002
		c-0.083,0.065-0.188,0.104-0.296,0.104H1.601c-0.262,0-0.475-0.213-0.475-0.476v-1.801c0-0.263,0.213-0.476,0.475-0.476h6.184
		c0.396,0,0.777-0.146,1.071-0.412l5.432-4.89c0.064-0.059,0.148-0.09,0.235-0.09h0.898l-0.349-1.127h-0.55
		c-0.367,0-0.718,0.135-0.99,0.38L8.1,15.393c-0.087,0.08-0.2,0.123-0.317,0.123H1.601C0.718,15.516,0,16.234,0,17.117v1.801
		c0,0.883,0.718,1.602,1.601,1.602h9.317c0.363,0,0.718-0.125,0.999-0.35l2.597-2.074c0.062-0.049,0.14-0.076,0.22-0.076h11.527
		c0.22,0,0.419-0.127,0.511-0.324l3.176-6.769C30.029,10.752,30.016,10.548,29.912,10.385z"/>
	<path fill="#777777" d="M6.62,13.332c2.141,0,3.883-1.742,3.883-3.883c0-2.141-1.742-3.882-3.883-3.882
		c-2.141,0-3.883,1.742-3.883,3.882C2.737,11.59,4.479,13.332,6.62,13.332z M6.62,6.693c1.52,0,2.756,1.236,2.756,2.756
		c0,1.52-1.236,2.756-2.756,2.756s-2.757-1.236-2.757-2.756C3.863,7.929,5.1,6.693,6.62,6.693z"/>
	<path fill="#777777" d="M15.117,7.137l0.924,2.986l0.348,1.127l0.428,1.382c0.064,0.21,0.259,0.344,0.468,0.344
		c0.021,0,0.043-0.006,0.065-0.009c0.025-0.004,0.051-0.004,0.078-0.013c0.258-0.079,0.4-0.353,0.322-0.61l-0.338-1.094h2.457v0.38
		c0,0.27,0.219,0.489,0.488,0.489c0.269,0,0.488-0.218,0.49-0.488V11.25h1.676l-1.045,1.481c-0.156,0.22-0.104,0.524,0.117,0.681
		c0.086,0.06,0.184,0.089,0.278,0.089c0.153,0,0.306-0.071,0.399-0.207l0.525-0.745l0.918-1.298l0.793-1.127l1.619-2.293
		c0.133-0.188,0.105-0.434-0.041-0.6c-0.025-0.028-0.045-0.058-0.076-0.081c-0.223-0.155-0.525-0.103-0.682,0.118l-2.016,2.855
		h-2.469l0.002-4.668c0-0.27-0.22-0.489-0.488-0.489c-0.27,0-0.486,0.218-0.488,0.488l-0.002,4.669h-2.809L16.029,6.78
		c-0.08-0.258-0.354-0.401-0.612-0.322c-0.257,0.08-0.4,0.353-0.321,0.611L15.117,7.137z"/>
</g>
</svg>
