<?xml version="1.0" encoding="utf-8"?>
<!-- Generator: Adobe Illustrator 15.0.0, SVG Export Plug-In . SVG Version: 6.00 Build 0)  -->
<!DOCTYPE svg PUBLIC "-//W3C//DTD SVG 1.1//EN" "http://www.w3.org/Graphics/SVG/1.1/DTD/svg11.dtd">
<svg version="1.1" id="Layer_1" xmlns="http://www.w3.org/2000/svg" xmlns:xlink="http://www.w3.org/1999/xlink" x="0px" y="0px"
	 width="30px" height="30px" viewBox="0 0 30 30" enable-background="new 0 0 30 30" xml:space="preserve">
<g>
	<path fill="#777777" d="M24.65,17.259H13.686c-0.296,0-0.579,0.107-0.799,0.307l-3.91,3.519c-0.039,0.034-0.089,0.055-0.141,0.055
		H4.387c-0.707,0-1.282,0.575-1.282,1.282v1.297C3.105,24.425,3.681,25,4.387,25h6.705c0.289,0,0.573-0.101,0.8-0.28l0.287-0.229
		l0,0l0.003-0.004l1.579-1.26c0.022-0.019,0.048-0.027,0.076-0.027H24.65c0.658,0,1.195-0.535,1.195-1.194v-3.554
		C25.846,17.794,25.311,17.259,24.65,17.259z M24.773,22.005c0,0.068-0.056,0.123-0.123,0.123h-9.591l0.263-0.216
		c0.229-0.188,0.262-0.524,0.075-0.755c-0.188-0.229-0.525-0.262-0.754-0.073l-3.144,2.577l-0.275,0.22
		c-0.038,0.03-0.084,0.047-0.132,0.047H4.387c-0.116,0-0.211-0.095-0.211-0.211V22.42c0-0.116,0.095-0.211,0.211-0.211h4.449
		c0.318,0,0.623-0.117,0.858-0.329l3.909-3.52c0.022-0.021,0.052-0.031,0.083-0.031H24.65c0.067,0,0.123,0.056,0.123,0.123V22.005z"
		/>
	<path fill="#777777" d="M7.941,19.854c1.772,0,3.213-1.44,3.213-3.213c0-1.771-1.441-3.213-3.213-3.213
		c-1.771,0-3.212,1.442-3.212,3.213C4.729,18.413,6.169,19.854,7.941,19.854z M7.941,14.499c1.181,0,2.142,0.961,2.142,2.143
		s-0.96,2.143-2.142,2.143c-1.181,0-2.141-0.961-2.141-2.143S6.76,14.499,7.941,14.499z"/>
	<path fill="#777777" d="M13.071,16.136c0.463,0.52,1.251,0.623,1.833,0.24l0.825-0.54c0.004-0.002,0.006-0.002,0.008-0.005
		l0.021-0.016l1.244-0.814v1.326c0,0.297,0.24,0.537,0.536,0.537c0.295,0,0.535-0.24,0.535-0.537v-2.166l1.282-0.918
		c0.242-0.172,0.297-0.507,0.125-0.748c-0.172-0.24-0.508-0.297-0.746-0.124l-3.587,2.565l-0.832,0.545
		c-0.144,0.094-0.331,0.069-0.446-0.062l-0.388-0.435c-0.119-0.133-0.117-0.332,0.004-0.463l5.14-5.563
		c0.32-0.347,0.792-0.52,1.259-0.464c0.47,0.057,0.886,0.338,1.113,0.751c0.946,1.711,1.592,3.804,1.972,6.397
		c0.043,0.293,0.312,0.492,0.607,0.452c0.293-0.044,0.496-0.315,0.453-0.608c-0.399-2.724-1.084-4.935-2.096-6.759
		c-0.394-0.713-1.111-1.198-1.922-1.297c-0.812-0.095-1.621,0.203-2.175,0.801l-5.14,5.564c-0.499,0.54-0.506,1.359-0.016,1.904
		L13.071,16.136z"/>
	<path fill="#777777" d="M17.129,6.98c1.783,0,3.234-1.377,3.387-3.122c0.685-0.327,1.16-1.02,1.16-1.827
		c0-1.12-0.91-2.031-2.031-2.031c-0.443,0-0.869,0.153-1.219,0.418c-0.419-0.177-0.854-0.269-1.297-0.269
		c-1.883,0-3.416,1.532-3.416,3.416C13.713,5.449,15.246,6.98,17.129,6.98z M17.129,1.22c0.387,0,0.768,0.103,1.13,0.305
		c0.251,0.139,0.562,0.054,0.712-0.189c0.012-0.008,0.025-0.011,0.035-0.02c0.176-0.158,0.402-0.245,0.639-0.245
		c0.529,0,0.961,0.431,0.961,0.96c0,0.583-0.562,1.032-1.116,0.947c-0.294-0.052-0.566,0.152-0.613,0.444s0.151,0.567,0.444,0.613
		c0.033,0.006,0.068,0.005,0.104,0.008c-0.223,1.064-1.166,1.865-2.295,1.865c-1.293,0-2.344-1.052-2.344-2.344
		S15.836,1.22,17.129,1.22z"/>
</g>
</svg>
