<?xml version="1.0" encoding="utf-8"?>
<!-- Generator: Adobe Illustrator 15.0.0, SVG Export Plug-In . SVG Version: 6.00 Build 0)  -->
<!DOCTYPE svg PUBLIC "-//W3C//DTD SVG 1.1//EN" "http://www.w3.org/Graphics/SVG/1.1/DTD/svg11.dtd">
<svg version="1.1" id="Layer_1" xmlns="http://www.w3.org/2000/svg" xmlns:xlink="http://www.w3.org/1999/xlink" x="0px" y="0px"
	 width="30px" height="30px" viewBox="0 0 30 30" enable-background="new 0 0 30 30" xml:space="preserve">
<g>
	<path fill="#777777" d="M20.371,5.786c1.595,0,2.893-1.298,2.893-2.893C23.264,1.298,21.966,0,20.371,0
		c-1.596,0-2.893,1.297-2.893,2.893S18.775,5.786,20.371,5.786z M20.371,1.048c1.018,0,1.843,0.828,1.843,1.844
		c0,1.017-0.825,1.845-1.843,1.845s-1.844-0.828-1.844-1.845C18.527,1.876,19.354,1.048,20.371,1.048z"/>
	<path fill="#777777" d="M25.629,19.697h-1.396v1.05h1.396c0.241,0,0.438,0.194,0.438,0.437v2.769H14.175v-3.816h6.245
		c1.553,0,2.816-1.265,2.816-2.817v-8.77c-0.004-0.947-0.777-1.716-1.729-1.716c-0.001,0-0.001,0-0.003,0l-0.345,0.001
		c-1.162,0.002-2.257,0.457-3.077,1.281c-0.82,0.824-1.271,1.918-1.27,3.081l0.008,4.14l0,0l-0.086,0.084h-4.671
		c-1.15,0-2.086,0.936-2.086,2.085L9.976,25h1.732v-1.049h-0.684l0.001-6.446c0-0.571,0.466-1.038,1.038-1.038h4.671
		c0.301,0,0.593-0.121,0.803-0.333c0.213-0.215,0.332-0.498,0.332-0.802l-0.008-4.14c-0.002-0.882,0.341-1.713,0.965-2.339
		c0.623-0.625,1.451-0.971,2.336-0.972l0.344-0.001c0.001,0,0.001,0,0.002,0c0.373,0,0.68,0.301,0.68,0.669v8.768
		c0,0.976-0.793,1.771-1.768,1.771h-6.395c-0.496,0-0.898,0.401-0.898,0.896v5.002h1.022V25h12.003c0.531,0,0.963-0.432,0.963-0.962
		v-2.854C27.115,20.364,26.448,19.697,25.629,19.697z"/>
	<path fill="#777777" d="M7.902,5.224C8.1,5.05,8.399,4.786,8.399,4.281c0-0.242-0.196-0.438-0.437-0.438
		c-0.242,0-0.437,0.195-0.437,0.438c0,0.096-0.027,0.134-0.202,0.288C7.126,4.743,6.827,5.006,6.827,5.511
		c0,0.505,0.3,0.771,0.498,0.945C7.5,6.611,7.527,6.648,7.527,6.746c0,0.098-0.027,0.136-0.203,0.291
		C7.125,7.212,6.827,7.476,6.827,7.982s0.299,0.77,0.497,0.945C7.5,9.083,7.527,9.121,7.527,9.219c0,0.241,0.195,0.438,0.437,0.438
		c0.241,0,0.437-0.196,0.437-0.438c0-0.506-0.299-0.771-0.497-0.946C7.727,8.117,7.7,8.079,7.7,7.982
		c0-0.098,0.027-0.135,0.202-0.291C8.1,7.516,8.399,7.251,8.399,6.745c0-0.505-0.299-0.77-0.497-0.945
		C7.727,5.646,7.7,5.608,7.7,5.511C7.7,5.416,7.727,5.378,7.902,5.224z"/>
	<path fill="#777777" d="M10.195,5.885c0,0.506,0.299,0.77,0.497,0.945c0.175,0.156,0.202,0.194,0.202,0.292
		c0,0.241,0.196,0.437,0.437,0.437c0.241,0,0.437-0.196,0.437-0.437c0-0.506-0.299-0.771-0.497-0.946
		c-0.176-0.156-0.203-0.194-0.203-0.291c0-0.097,0.027-0.135,0.203-0.291c0.198-0.175,0.497-0.44,0.497-0.946
		c0-0.505-0.299-0.77-0.497-0.945c-0.176-0.155-0.203-0.192-0.203-0.29c0-0.095,0.027-0.133,0.202-0.287
		c0.198-0.175,0.498-0.438,0.498-0.944c0-0.242-0.196-0.437-0.437-0.437c-0.241,0-0.437,0.195-0.437,0.437
		c0,0.096-0.027,0.134-0.202,0.288c-0.197,0.176-0.497,0.439-0.497,0.944s0.299,0.77,0.497,0.945
		c0.175,0.155,0.202,0.193,0.202,0.29c0,0.098-0.027,0.136-0.202,0.292C10.494,5.115,10.195,5.379,10.195,5.885z"/>
	<path fill="#777777" d="M13.563,7.982c0,0.506,0.299,0.77,0.497,0.945c0.175,0.156,0.202,0.194,0.202,0.292
		c0,0.241,0.196,0.438,0.437,0.438c0.241,0,0.437-0.196,0.437-0.438c0-0.506-0.299-0.771-0.497-0.946
		c-0.176-0.155-0.202-0.193-0.202-0.29c0-0.098,0.026-0.135,0.202-0.291c0.198-0.175,0.497-0.44,0.497-0.946
		c0-0.505-0.299-0.77-0.497-0.945c-0.176-0.155-0.202-0.192-0.202-0.29c0-0.096,0.026-0.133,0.201-0.287
		c0.198-0.174,0.498-0.438,0.498-0.943c0-0.242-0.196-0.438-0.437-0.438c-0.241,0-0.437,0.195-0.437,0.438
		c0,0.096-0.027,0.134-0.201,0.288c-0.198,0.174-0.498,0.438-0.498,0.943c0,0.505,0.299,0.77,0.497,0.945
		c0.175,0.155,0.202,0.192,0.202,0.29s-0.027,0.136-0.202,0.291C13.862,7.212,13.563,7.476,13.563,7.982z"/>
</g>
</svg>
