<?xml version="1.0" encoding="utf-8"?>
<!-- Generator: Adobe Illustrator 15.0.0, SVG Export Plug-In . SVG Version: 6.00 Build 0)  -->
<!DOCTYPE svg PUBLIC "-//W3C//DTD SVG 1.1//EN" "http://www.w3.org/Graphics/SVG/1.1/DTD/svg11.dtd">
<svg version="1.1" id="Layer_1" xmlns="http://www.w3.org/2000/svg" xmlns:xlink="http://www.w3.org/1999/xlink" x="0px" y="0px"
	 width="30px" height="30px" viewBox="0 0 30 30" enable-background="new 0 0 30 30" xml:space="preserve">
<g>
	<path fill="#777777" d="M11.808,4.466c0,1.829,1.489,3.317,3.318,3.317s3.319-1.488,3.319-3.317c0-1.83-1.49-3.319-3.319-3.319
		S11.808,2.636,11.808,4.466z M17.288,4.466c0,1.19-0.97,2.16-2.162,2.16c-1.192,0-2.161-0.97-2.161-2.16
		c0-1.192,0.969-2.162,2.161-2.162C16.318,2.304,17.288,3.273,17.288,4.466z"/>
	<path fill="#777777" d="M5.801,16.641c2.056-1.121,3.744-1.781,4.928-1.928v2.143c0.135-0.076,0.286-0.129,0.448-0.135
		c0.045-0.002,0.086,0.01,0.13,0.014c0.223,0.019,0.425,0.111,0.578,0.27v-2.898c0-0.312-0.249-0.569-0.561-0.579l-0.122-0.001
		c-1.363,0-3.303,0.672-5.768,2l-0.5-1.171c3.779-2.868,6.979-4.203,10.066-4.203s6.284,1.334,10.055,4.181l-0.49,1.191
		c-2.465-1.325-4.404-1.998-5.767-1.998l-0.123,0.001c-0.312,0.01-0.561,0.266-0.561,0.579v2.735
		c0.149-0.09,0.325-0.137,0.508-0.118c0.024,0.002,0.047,0.01,0.069,0.012c0.224,0.023,0.425,0.123,0.578,0.277v-2.298
		c1.185,0.146,2.873,0.806,4.931,1.929c0.483,0.266,1.141,0.031,1.352-0.48l0.572-1.387c0.199-0.48,0.049-1.033-0.364-1.346
		C21.771,10.404,18.354,8.994,15,8.994c-3.354,0-6.775,1.41-10.766,4.438c-0.41,0.311-0.558,0.863-0.36,1.339l0.574,1.39
		C4.659,16.673,5.315,16.906,5.801,16.641z"/>
	<path fill="#777777" d="M8.226,18.688c-0.049,0.188-0.018,0.396,0.112,0.552c0.036,0.043,0.083,0.071,0.124,0.11
		c0.437,0.43,1.059,0.635,1.715,0.529c0.038-0.006,0.071-0.023,0.107-0.031c0.291-0.062,0.551-0.182,0.78-0.342
		c0.062-0.043,0.135-0.074,0.191-0.125c0.037,0.035,0.08,0.062,0.119,0.096c0.072,0.06,0.143,0.119,0.22,0.168
		c0.167,0.107,0.346,0.187,0.53,0.248c0.112,0.039,0.225,0.07,0.34,0.092c0.301,0.062,0.61,0.068,0.91,0.025
		c0.056-0.008,0.111-0.014,0.167-0.025c0.241-0.049,0.475-0.129,0.688-0.241c0.187-0.101,0.358-0.224,0.509-0.365
		c0.031,0.029,0.072,0.049,0.104,0.076c0.127,0.104,0.257,0.211,0.406,0.289c0.228,0.123,0.48,0.194,0.741,0.241
		c0.163,0.031,0.327,0.06,0.495,0.06s0.336-0.019,0.502-0.049c0.012-0.002,0.022-0.009,0.035-0.011
		c0.283-0.057,0.56-0.155,0.81-0.307c0.138-0.084,0.269-0.182,0.39-0.297c0.016,0.016,0.037,0.023,0.055,0.037
		c0.025,0.021,0.06,0.035,0.086,0.055c0.158,0.119,0.337,0.213,0.529,0.283c0.133,0.049,0.264,0.1,0.408,0.123
		c0.59,0.094,1.152-0.062,1.58-0.406c0.09-0.074,0.184-0.145,0.26-0.233c0.082-0.099,0.119-0.218,0.131-0.341
		c0.015-0.174-0.033-0.352-0.158-0.479c-0.215-0.217-0.551-0.203-0.75,0.031c-0.2,0.236-0.543,0.342-0.908,0.283
		c-0.221-0.035-0.416-0.131-0.562-0.26c-0.084-0.072-0.154-0.152-0.195-0.244c-0.067-0.148-0.19-0.256-0.334-0.299
		c-0.041-0.015-0.082-0.021-0.125-0.023c-0.178-0.002-0.307,0.084-0.404,0.211c-0.021,0.027-0.055,0.045-0.071,0.08
		c-0.375,0.713-1.393,0.855-2.046,0.504c-0.23-0.123-0.404-0.293-0.518-0.506c-0.189-0.357-0.727-0.357-0.916,0
		c-0.114,0.213-0.288,0.383-0.517,0.506c-0.483,0.26-1.165,0.248-1.638-0.062c-0.167-0.111-0.311-0.256-0.408-0.44
		c-0.03-0.06-0.079-0.095-0.122-0.134c-0.096-0.094-0.211-0.157-0.355-0.157c-0.061,0.002-0.119,0.021-0.175,0.043
		c-0.12,0.053-0.224,0.147-0.283,0.278c-0.113,0.252-0.41,0.449-0.757,0.504c-0.366,0.06-0.709-0.047-0.91-0.282
		c-0.2-0.234-0.535-0.248-0.75-0.031C8.292,18.494,8.251,18.59,8.226,18.688z"/>
	<path fill="#777777" d="M24.508,24.518c0.969-0.891,1.401-2.414,1.402-4.94c0-0.056-0.021-0.106-0.025-0.162
		c-0.004-0.151-0.031-0.263-0.045-0.301c-0.002-0.005-0.004-0.007-0.006-0.011c-0.057-0.192-0.141-0.385-0.266-0.565
		c-0.114-0.166-0.256-0.326-0.435-0.488c-0.448-0.407-1.094-0.778-1.919-1.102c-0.298-0.115-0.634,0.03-0.749,0.327
		c-0.116,0.298,0.029,0.634,0.327,0.748c0.684,0.269,1.225,0.572,1.562,0.879c0.107,0.101,0.194,0.197,0.259,0.291
		c0.06,0.086,0.093,0.166,0.114,0.246c0,0.025-0.011,0.121-0.142,0.271c-0.21,0.235-0.812,0.679-2.467,0.996
		c-0.958,0.185-2.265,0.326-4.058,0.364c-0.318,0.007-0.572,0.271-0.565,0.591c0.007,0.315,0.265,0.565,0.578,0.565
		c0.004,0,0.009,0,0.012,0c1.584-0.033,2.927-0.149,4.033-0.346c1.089-0.195,1.944-0.467,2.563-0.814
		c-0.125,1.248-0.426,2.082-0.924,2.566C21.037,25.305,9.2,25.494,6.571,23.93c-0.702-0.521-1.109-1.484-1.258-2.967
		c0.593,0.373,1.434,0.666,2.524,0.875c1.144,0.221,2.545,0.354,4.227,0.389c0.004,0,0.008,0,0.012,0
		c0.314,0,0.571-0.25,0.578-0.565c0.007-0.318-0.247-0.584-0.566-0.591c-1.92-0.041-3.282-0.202-4.254-0.405
		c-1.503-0.313-2.068-0.729-2.27-0.955c-0.133-0.149-0.142-0.252-0.142-0.274c0.024-0.097,0.014-0.189-0.009-0.279
		c0.012-0.018,0.016-0.031,0.029-0.047c0.022-0.027,0.044-0.053,0.076-0.088c0.375-0.406,1.113-0.801,2.074-1.138
		c0.103-0.034,0.194-0.073,0.302-0.106c0.267-0.084,0.418-0.346,0.389-0.614c-0.004-0.038,0-0.075-0.012-0.112
		c-0.097-0.305-0.422-0.477-0.726-0.377c-1.344,0.426-2.311,0.951-2.869,1.555c-0.049,0.051-0.092,0.103-0.135,0.154
		c-0.3,0.375-0.452,0.773-0.452,1.188c0,2.699,0.568,4.382,1.839,5.322c1.422,0.851,4.877,1.256,8.468,1.256
		c4.125,0,8.429-0.537,10.03-1.565C24.457,24.561,24.484,24.541,24.508,24.518z"/>
	<path fill="#777777" d="M6.87,5.354C6.651,5.546,6.321,5.839,6.321,6.397c0,0.557,0.33,0.849,0.548,1.042
		C7.063,7.61,7.092,7.652,7.092,7.76c0,0.266,0.216,0.482,0.482,0.482c0.266,0,0.482-0.216,0.482-0.482
		c0-0.559-0.33-0.851-0.549-1.044C7.314,6.545,7.285,6.504,7.285,6.397c0-0.108,0.029-0.15,0.223-0.322
		C7.727,5.882,8.057,5.59,8.057,5.032c0-0.558-0.33-0.85-0.548-1.042C7.314,3.819,7.285,3.777,7.285,3.67
		c0-0.105,0.029-0.146,0.222-0.316c0.219-0.193,0.55-0.483,0.55-1.042c0-0.266-0.216-0.482-0.482-0.482
		c-0.266,0-0.482,0.216-0.482,0.482c0,0.106-0.029,0.147-0.222,0.318c-0.219,0.193-0.55,0.484-0.55,1.04
		c0,0.558,0.33,0.85,0.548,1.042c0.193,0.171,0.223,0.212,0.223,0.319C7.092,5.14,7.063,5.182,6.87,5.354z"/>
	<path fill="#777777" d="M23.84,3.354c0.221-0.193,0.551-0.483,0.551-1.042c0-0.266-0.217-0.482-0.481-0.482
		s-0.482,0.216-0.482,0.482c0,0.106-0.028,0.147-0.223,0.318c-0.218,0.192-0.55,0.483-0.55,1.04c0,0.558,0.33,0.85,0.55,1.042
		c0.192,0.171,0.223,0.212,0.223,0.319c0,0.107-0.028,0.15-0.223,0.321c-0.22,0.193-0.55,0.485-0.55,1.043
		c0,0.557,0.33,0.849,0.55,1.042c0.192,0.172,0.223,0.214,0.223,0.322c0,0.266,0.218,0.482,0.482,0.482s0.481-0.216,0.481-0.482
		c0-0.559-0.33-0.851-0.55-1.044c-0.192-0.171-0.222-0.212-0.222-0.319c0-0.108,0.029-0.15,0.223-0.322
		c0.219-0.193,0.549-0.485,0.549-1.043c0-0.558-0.33-0.85-0.549-1.042c-0.193-0.171-0.223-0.212-0.223-0.319
		C23.619,3.565,23.648,3.524,23.84,3.354z"/>
</g>
</svg>
