<?xml version="1.0" encoding="utf-8"?>
<!-- Generator: Adobe Illustrator 15.0.0, SVG Export Plug-In . SVG Version: 6.00 Build 0)  -->
<!DOCTYPE svg PUBLIC "-//W3C//DTD SVG 1.1//EN" "http://www.w3.org/Graphics/SVG/1.1/DTD/svg11.dtd">
<svg version="1.1" id="Layer_1" xmlns="http://www.w3.org/2000/svg" xmlns:xlink="http://www.w3.org/1999/xlink" x="0px" y="0px"
	 width="30px" height="30px" viewBox="0 0 30 30" enable-background="new 0 0 30 30" xml:space="preserve">
<g>
	<path fill="#777777" d="M16.438,21.982c0.053,0,0.104-0.016,0.152-0.03c0.156,0.02,0.315,0.03,0.475,0.03h6.524
		c0.399,0,0.752-0.236,0.901-0.605l2.381-5.867c0.123-0.299,0.088-0.639-0.093-0.906c-0.182-0.27-0.483-0.432-0.807-0.432h-4.055
		l0.321-1.162l0.764-2.717c0.252-0.9-0.17-1.86-1.004-2.283L11.458,2.667c-0.586-0.297-1.355-0.068-1.685,0.498L8.831,4.786
		C8.483,5.382,8.666,6.139,9.249,6.509l7.324,4.662l-2.761,5.567c-0.562,1.133-0.5,2.451,0.167,3.527
		c0.158,0.254,0.345,0.482,0.552,0.686H3.779c-0.137,0-0.247-0.111-0.247-0.248v-2.024c0-0.128,0.099-0.235,0.225-0.248l8.64-0.758
		c0.284-0.024,0.495-0.275,0.469-0.559c-0.025-0.285-0.277-0.488-0.56-0.468l-8.641,0.758C3.001,17.463,2.5,18.012,2.5,18.68v2.023
		c0,0.706,0.574,1.279,1.279,1.279H16.438z M14.736,17.197l3.173-6.398L9.802,5.637C9.69,5.567,9.654,5.421,9.722,5.305l0.944-1.622
		C10.71,3.605,10.79,3.56,10.879,3.56c0.038,0,0.076,0.008,0.111,0.026L21.53,8.93c0.397,0.201,0.597,0.656,0.477,1.083l-1.457,5.19
		h0.012l-0.202,0.728c-0.076,0.275,0.085,0.561,0.36,0.635c0.047,0.014,0.093,0.02,0.138,0.02c0.227,0,0.435-0.15,0.497-0.379
		l0.277-1.003h4.252l-2.334,5.748h-6.484c-0.905,0-1.731-0.462-2.209-1.229C14.378,18.953,14.334,18.008,14.736,17.197z"/>
	<path fill="#777777" d="M24.419,5.094L23.738,3.39l-1.564,1.759l-0.756-0.352c-0.26-0.119-0.566-0.006-0.686,0.251
		c-0.121,0.258-0.008,0.565,0.25,0.686l1.454,0.675L23.4,5.326l0.345,0.862l2.052-0.174l-1.036,2.181l0.823,0.823L24.157,9.57v1.478
		c0,0.285,0.231,0.516,0.516,0.516c0.285,0,0.517-0.23,0.517-0.516v-0.772l2.243-0.869L26.005,7.98L27.5,4.833L24.419,5.094z"/>
</g>
</svg>
