<?xml version="1.0" encoding="utf-8"?>
<!-- Generator: Adobe Illustrator 15.0.0, SVG Export Plug-In . SVG Version: 6.00 Build 0)  -->
<!DOCTYPE svg PUBLIC "-//W3C//DTD SVG 1.1//EN" "http://www.w3.org/Graphics/SVG/1.1/DTD/svg11.dtd">
<svg version="1.1" id="Layer_1" xmlns="http://www.w3.org/2000/svg" xmlns:xlink="http://www.w3.org/1999/xlink" x="0px" y="0px"
	 width="30px" height="30px" viewBox="0 0 30 30" enable-background="new 0 0 30 30" xml:space="preserve">
<g>
	<path fill="#777777" d="M26.669,6.381c1.514,0,2.745-1.232,2.745-2.748s-1.231-2.748-2.745-2.748c-1.516,0-2.747,1.233-2.747,2.748
		S25.153,6.381,26.669,6.381z M26.669,1.881c0.965,0,1.75,0.786,1.75,1.752s-0.785,1.751-1.75,1.751
		c-0.967,0-1.751-0.786-1.751-1.751S25.702,1.881,26.669,1.881z"/>
	<path fill="#777777" d="M7.007,14.339c0-0.28,0.228-0.508,0.507-0.508h10.048l4.169-4.694c1.068-1.202,2.914-1.312,4.117-0.243
		l0.288,0.255l0.658-0.746L26.51,8.149c-0.782-0.694-1.786-1.046-2.829-0.98c-1.044,0.061-1.999,0.525-2.692,1.307l-3.873,4.359
		H7.515c-0.829,0-1.503,0.675-1.503,1.504v1.968h0.996V14.339z"/>
	<path fill="#777777" d="M5.713,20.373h15.59l8.521-9.591c0.259-0.293,0.23-0.743-0.062-1.004l-1.297-1.152
		c-0.291-0.259-0.74-0.232-1.004,0.06l-0.364,0.411l-3.121,3.511c-0.182,0.206-0.164,0.521,0.042,0.703
		c0.095,0.085,0.214,0.126,0.331,0.126c0.137,0,0.273-0.057,0.372-0.167l3.121-3.512v0l0.176-0.198l0.872,0.774l-8.034,9.042H5.996
		v-1.166h8.631c0.274,0,0.498-0.224,0.498-0.497c0-0.275-0.223-0.499-0.498-0.499H5.713C5.32,17.215,5,17.535,5,17.927v1.733
		C5,20.053,5.32,20.373,5.713,20.373z"/>
	<path fill="#777777" d="M18.167,21.01c-0.275,0-0.498,0.223-0.498,0.498v1.075c0,0.452,0.367,0.818,0.819,0.818h1.544
		c0.452,0,0.819-0.366,0.819-0.818v-1.075c0-0.275-0.223-0.498-0.498-0.498s-0.498,0.223-0.498,0.498v0.898h-1.189v-0.898
		C18.666,21.232,18.441,21.01,18.167,21.01z"/>
	<path fill="#777777" d="M7.262,21.01c-0.275,0-0.498,0.223-0.498,0.498v1.075c0,0.452,0.367,0.818,0.818,0.818h1.545
		c0.451,0,0.818-0.366,0.818-0.818v-1.075c0-0.275-0.223-0.498-0.498-0.498c-0.274,0-0.498,0.223-0.498,0.498v0.898H7.76v-0.898
		C7.76,21.232,7.537,21.01,7.262,21.01z"/>
	<path fill="#777777" d="M13.53,5.932h2.519C16.55,6.86,17.661,7.2,18.53,7.2V6.204c-0.686,0-1.473-0.286-1.682-0.925l-0.112-0.343
		l-3.243-0.038l0.037-3.903l6.196,0.037l-0.037,3.904h-0.908v0.996h0.908c0.569,0,1.032-0.463,1.032-1.034V1.033
		c0-0.57-0.463-1.033-1.032-1.033H13.53c-0.569,0-1.033,0.463-1.033,1.033v3.866C12.498,5.469,12.961,5.932,13.53,5.932z"/>
</g>
</svg>
